<?xml version="1.0" standalone="no"?>
<!DOCTYPE svg PUBLIC "-//W3C//DTD SVG 20010904//EN"
 "http://www.w3.org/TR/2001/REC-SVG-20010904/DTD/svg10.dtd">
<svg version="1.0" xmlns="http://www.w3.org/2000/svg"
 width="594.000000pt" height="594.000000pt" viewBox="0 0 594.000000 594.000000"
 preserveAspectRatio="xMidYMid meet">
<metadata>
Created by potrace 1.14, written by Peter Selinger 2001-2017
</metadata>
<g transform="translate(0.000000,594.000000) scale(0.100000,-0.100000)"
fill="#000000" stroke="none">
<path d="M2515 5346 c-52 -68 -63 -141 -29 -193 13 -21 13 -23 -3 -23 -9 0
-32 14 -49 31 l-33 32 -6 -26 c-9 -34 1 -62 37 -103 30 -34 26 -40 -19 -28
-12 3 -24 17 -28 32 -13 55 -37 91 -70 106 -40 19 -57 20 -54 4 5 -26 -13 -79
-25 -75 -32 12 -167 38 -183 35 -11 -2 15 -19 70 -46 49 -23 92 -42 96 -42 4
0 24 -16 44 -35 33 -32 66 -48 52 -25 -9 14 -3 13 46 -10 32 -14 38 -20 22
-20 -36 0 -154 -48 -211 -86 -74 -49 -98 -71 -149 -139 -165 -219 -174 -508
-28 -895 50 -133 92 -281 100 -360 8 -69 32 -112 71 -124 52 -15 58 -22 80
-82 89 -250 207 -416 312 -439 40 -8 141 -105 195 -188 71 -107 128 -268 142
-402 15 -147 1 -328 -35 -456 -10 -36 -11 -37 -58 -34 -47 3 -47 4 -68 56 -19
47 -46 70 -58 50 -8 -12 279 -724 292 -729 7 -2 19 14 28 35 8 21 19 47 24 58
9 20 197 488 232 579 15 37 16 51 7 57 -23 14 -34 -3 -82 -124 l-47 -123 -35
-1 c-28 -1 -36 3 -40 20 -19 94 -40 235 -50 352 -3 33 -8 83 -11 110 -6 66 -6
307 1 369 9 79 35 155 64 189 38 42 51 29 51 -49 0 -71 20 -104 64 -104 33 0
51 25 48 69 -1 20 -4 57 -6 82 -1 26 4 62 11 80 18 43 122 131 168 143 26 6
46 22 78 65 103 134 162 233 262 433 58 117 123 247 145 288 83 158 157 381
176 526 12 86 9 225 -6 297 -33 157 -130 302 -262 389 -54 36 -183 88 -218 88
-37 0 -30 20 15 41 25 12 55 33 68 48 12 15 48 37 80 50 31 13 57 26 57 29 0
2 -22 2 -49 -1 -44 -5 -50 -4 -55 16 -5 21 -6 21 -36 -8 -26 -25 -32 -27 -40
-15 -12 19 -13 37 -2 44 24 15 -15 191 -47 210 -5 4 -24 -18 -41 -46 -47 -77
-110 -157 -134 -170 -18 -9 -19 -9 -10 3 9 11 7 21 -6 42 l-17 28 -17 -25 c-9
-14 -16 -30 -16 -36 0 -13 -2 -13 -36 5 -18 9 -30 11 -35 4 -3 -6 -11 -4 -18
5 -7 8 -47 33 -90 55 -86 44 -103 42 -119 -12 -6 -17 -13 -66 -17 -107 -3 -41
-8 -76 -9 -78 -2 -1 -11 0 -20 4 -14 5 -16 15 -11 58 3 28 7 67 9 87 3 23 -2
46 -12 61 l-17 26 -60 -29 c-67 -33 -94 -62 -95 -99 l0 -25 -15 29 c-8 15 -13
32 -10 36 3 4 -2 10 -10 14 -8 3 -17 1 -20 -4 -11 -18 -24 -11 -31 16 l-6 25
-24 -22 c-18 -17 -21 -25 -13 -36 6 -7 8 -13 3 -13 -14 0 -73 92 -98 154 l-24
58 -27 -36z m-220 -254 c-3 -16 -1 -41 4 -55 6 -15 7 -27 1 -27 -14 0 -22 39
-15 76 3 19 8 34 11 34 3 0 3 -13 -1 -28z"/>
<path d="M3176 2317 c-11 -8 -18 -26 -18 -42 0 -57 73 -74 101 -24 29 53 -34
102 -83 66z"/>
<path d="M2362 1951 c-43 -59 -48 -70 -32 -74 22 -6 29 -1 64 45 l28 38 28
-39 c27 -37 65 -58 75 -41 5 9 -92 140 -104 140 -5 0 -31 -31 -59 -69z"/>
<path d="M1691 1862 c-8 -3 -11 -116 -11 -359 l0 -354 23 3 c21 3 22 7 22 88
l0 85 90 3 c102 4 79 18 193 -116 38 -44 61 -62 78 -62 13 0 24 3 24 6 0 5
-95 117 -137 162 -19 20 -16 28 16 42 111 45 161 233 97 363 -49 101 -121 137
-283 140 -56 1 -106 1 -112 -1z m236 -53 c52 -14 105 -61 128 -116 21 -50 19
-158 -4 -209 -36 -80 -108 -114 -240 -114 l-86 0 0 225 -1 225 79 0 c43 0 99
-5 124 -11z"/>
<path d="M2210 1508 l0 -358 210 0 c203 0 210 1 210 20 0 19 -7 20 -190 20
l-190 0 0 95 c0 92 1 95 23 96 12 0 85 2 162 2 133 2 140 3 140 22 0 19 -7 20
-150 21 -82 1 -156 2 -162 3 -10 1 -13 47 -13 196 l0 195 180 0 c154 0 182 2
187 15 3 9 2 19 -1 23 -4 3 -97 6 -206 7 l-200 0 0 -357z"/>
<path d="M3364 1861 c-2 -2 -4 -163 -4 -358 l0 -353 210 0 c203 0 210 1 210
20 0 19 -7 20 -190 20 l-190 0 0 95 0 95 38 1 c20 0 93 1 162 2 118 2 125 3
128 23 3 20 -1 20 -160 20 l-163 0 -3 197 -2 197 185 0 c178 0 185 1 185 20 0
11 -3 20 -7 21 -25 3 -395 3 -399 0z"/>
<path d="M3975 1856 c-103 -46 -126 -184 -44 -264 17 -17 72 -51 122 -77 159
-82 192 -120 182 -207 -12 -94 -115 -145 -234 -116 -32 8 -58 26 -98 65 -50
50 -73 59 -73 29 0 -22 71 -96 114 -118 32 -17 59 -22 121 -23 70 0 86 4 127
27 54 33 88 92 88 156 0 94 -42 140 -197 220 -103 53 -152 96 -154 135 -5 75
9 105 63 133 57 30 139 9 177 -45 24 -33 29 -35 50 -22 12 8 10 16 -13 45 -52
68 -155 96 -231 62z"/>
<path d="M3844 1050 c-11 -4 -46 -40 -77 -79 l-58 -71 -57 -1 c-31 0 -66 -4
-77 -9 l-20 -9 20 -2 c11 -1 41 -1 68 -1 l48 1 -18 -30 c-30 -51 -115 -140
-176 -186 -92 -67 -113 -56 -52 28 44 59 50 85 24 100 -24 13 -92 -17 -134
-59 l-28 -27 22 43 c21 41 21 42 2 42 -11 0 -43 -22 -71 -50 -28 -27 -70 -63
-94 -79 -46 -32 -96 -49 -96 -34 0 5 25 43 56 84 l55 74 -27 3 c-21 3 -37 -7
-75 -44 -27 -27 -48 -53 -46 -58 2 -6 -2 -21 -9 -35 -9 -18 -10 -30 -2 -44 15
-28 68 -17 137 30 75 51 78 52 53 9 -50 -84 -9 -75 82 18 74 75 136 118 136
94 0 -7 -16 -31 -36 -53 -20 -22 -39 -49 -44 -60 -11 -27 6 -55 33 -55 27 0
105 35 130 58 16 14 19 14 17 2 -11 -75 55 -75 168 0 l33 22 -12 -26 c-9 -20
-9 -29 1 -41 24 -29 70 -15 164 52 l49 35 -27 -46 c-15 -25 -23 -47 -19 -47
27 -4 49 7 72 34 57 69 154 147 166 135 3 -3 -17 -40 -45 -82 -27 -42 -50 -81
-50 -86 0 -23 46 4 98 59 78 81 170 142 143 94 -6 -10 -24 -33 -41 -52 -50
-56 -53 -111 -7 -111 26 0 117 45 129 64 4 6 8 9 9 6 6 -34 9 -43 20 -57 10
-12 24 -14 59 -8 59 8 66 8 126 0 41 -6 65 -2 130 19 76 26 154 70 154 87 0 4
-4 11 -10 14 -5 3 -10 2 -10 -3 0 -10 -63 -54 -93 -65 -15 -6 -16 -4 -7 13 13
24 13 76 0 99 -7 14 -5 23 10 36 25 23 26 45 1 45 -22 0 -51 -25 -51 -44 0
-16 -127 -136 -144 -136 -7 0 -25 -9 -40 -21 -31 -25 -71 -22 -71 5 0 13 20
29 66 53 114 59 112 137 -2 89 -19 -8 -64 -41 -101 -73 -69 -61 -133 -102
-143 -91 -7 7 13 45 50 97 30 41 31 57 5 71 -23 12 -94 -14 -119 -43 -19 -24
-34 -21 -21 4 16 28 -3 49 -37 43 -15 -3 -48 -21 -75 -40 -48 -36 -60 -36 -33
0 42 55 -10 47 -65 -10 -48 -49 -154 -124 -177 -124 -27 0 -20 14 90 158 7 9
2 12 -19 12 -21 0 -45 -16 -91 -59 -70 -68 -146 -116 -169 -107 -12 5 -13 10
-3 28 25 47 153 218 163 219 6 1 29 3 51 4 22 2 43 4 48 4 4 1 7 6 7 12 0 6
-16 9 -40 8 -22 -2 -41 0 -42 4 -2 4 19 36 45 72 51 68 56 88 21 75z m696
-295 c0 -8 -18 -24 -40 -35 -48 -25 -52 -13 -8 24 36 30 48 32 48 11z m145
-43 c-2 -9 -4 -24 -4 -32 -2 -34 -17 -42 -61 -35 l-42 7 48 43 c50 44 65 48
59 17z m-65 -92 c11 -7 7 -10 -17 -10 -17 0 -35 5 -38 10 -8 13 35 13 55 0z"/>
<path d="M3273 1003 c-21 -8 -16 -53 6 -53 24 0 45 25 37 45 -5 15 -20 18 -43
8z"/>
<path d="M3962 998 c-18 -18 -14 -36 9 -43 26 -8 54 16 46 39 -7 19 -38 21
-55 4z"/>
</g>
</svg>
